<?xml version="1.0" encoding="utf-8"?>
<!-- Generator: Adobe Illustrator 16.0.0, SVG Export Plug-In . SVG Version: 6.00 Build 0)  -->
<!DOCTYPE svg PUBLIC "-//W3C//DTD SVG 1.1//EN" "http://www.w3.org/Graphics/SVG/1.1/DTD/svg11.dtd">
<svg version="1.1" id="Layer_1" xmlns="http://www.w3.org/2000/svg" xmlns:xlink="http://www.w3.org/1999/xlink" x="0px" y="0px"
	 width="97.475px" height="97.475px" viewBox="0 0 97.475 97.475" enable-background="new 0 0 97.475 97.475" xml:space="preserve">
<g>
	<g>
		<path fill="#BFE6F6" d="M49.646,13.483v70.508c19.123,0,34.625-15.784,34.625-35.254S68.768,13.483,49.646,13.483z"/>
	</g>
</g>
<g>
	<g>
		<linearGradient id="SVGID_1_" gradientUnits="userSpaceOnUse" x1="95.2729" y1="46.4043" x2="5.6555" y2="51.101">
			<stop  offset="0" style="stop-color:#00B5F0"/>
			<stop  offset="1" style="stop-color:#064F9B"/>
		</linearGradient>
		<path fill="url(#SVGID_1_)" d="M50.779,93.922c-24.915,0-45.185-20.27-45.185-45.185S25.864,3.553,50.779,3.553
			c17.626,0,33.76,10.359,41.102,26.393l-2.211,1.013C82.722,15.787,67.457,5.985,50.779,5.985
			c-23.574,0-42.751,19.179-42.751,42.752s19.178,42.752,42.751,42.752c16.678,0,31.943-9.802,38.889-24.973l2.212,1.013
			C84.539,83.563,68.405,93.922,50.779,93.922z"/>
	</g>
	<g>
		<path fill="#064F9B" d="M90.774,67.023"/>
	</g>
	<g>
		<path fill="#064F9B" d="M90.774,30.451"/>
	</g>
</g>
<g>
</g>
<g>
</g>
<g>
</g>
<g>
</g>
<g>
</g>
<g>
</g>
</svg>
