<svg height="511pt" viewBox="0 0 511.99945 511" width="511pt" xmlns="http://www.w3.org/2000/svg"><path d="m496.554688 87.507812-79.0625-82.394531c-5.734376-5.976562-15.230469-6.171875-21.207032-.4375-5.976562 5.738281-6.175781 15.230469-.4375 21.207031l79.058594 82.394532c15.324219 15.964844 4.089844 42.394531-18.050781 42.394531h-110.226563c-3.980468 0-7.796875 1.582031-10.609375 4.394531l-49.367187 49.386719c-25.5-21.925781-64.007813-20.910156-88.296875 3.390625-3.480469 3.480469-174.191407 174.269531-179.339844 179.417969-25.355469 25.367187-25.355469 66.636719 0 92l14.152344 14.160156c25.417969 25.429687 66.558593 25.429687 91.976562 0 4.710938-4.714844 174.417969-174.496094 179.339844-179.421875 24.167969-24.175781 25.28125-62.796875 3.375-88.324219l44.984375-45.007812h104.011719c48.523437 0 73.269531-58.171875 39.699219-93.160157zm-272.585938 264.609376-63.703125-63.730469 23.824219-23.835938 63.703125 63.734375zm-120.042969 120.097656c-13.691406 13.695312-35.847656 13.699218-49.539062 0l-14.15625-14.160156c-13.664063-13.667969-13.664063-35.910157 0-49.582032l98.828125-98.871094 63.703125 63.734376zm179.339844-179.421875-14.265625 14.273437-63.703125-63.734375 14.277344-14.28125c13.6875-13.695312 35.847656-13.699219 49.539062 0 .003907 0 14.152344 14.15625 14.152344 14.160157 13.664063 13.667968 13.664063 35.914062 0 49.582031zm0 0"/></svg>