<svg id="Layer_2" enable-background="new 0 0 24 24" height="512" viewBox="0 0 24 24" width="512" xmlns="http://www.w3.org/2000/svg"><g><path d="m22.5 24c-.421 0-.823-.177-1.102-.484l-5.996-6.496c-.257-.274-.402-.638-.402-1.02s.145-.746.406-1.023l5.996-6.496c.275-.304.677-.481 1.098-.481.827 0 1.5.673 1.5 1.5v13c0 .827-.673 1.5-1.5 1.5zm0-15c-.142 0-.27.055-.359.155l-6.004 6.504c-.09.095-.137.215-.137.341s.047.246.133.337l6.004 6.504c.276.306.863.076.863-.341v-13c0-.276-.225-.5-.5-.5z"/></g><g><path d="m1.5 24c-.827 0-1.5-.673-1.5-1.5v-13c0-.827.673-1.5 1.5-1.5.422 0 .823.177 1.102.485l5.995 6.495c.258.273.403.637.403 1.02s-.145.747-.408 1.024l-5.995 6.496c-.274.303-.675.48-1.097.48zm0-15c-.275 0-.5.224-.5.5v13c0 .417.595.639.857.346l6.005-6.505c.091-.095.138-.215.138-.341s-.047-.246-.133-.336l-6.005-6.505c-.093-.104-.22-.159-.362-.159z"/></g><g><path d="m12 23c-.276 0-.5-.224-.5-.5v-13c0-.276.224-.5.5-.5s.5.224.5.5v13c0 .276-.224.5-.5.5z"/></g><g><path d="m20.5 8h-7c-.276 0-.5-.224-.5-.5s.224-.5.5-.5h6.5v-6.5c0-.276.224-.5.5-.5s.5.224.5.5v7c0 .276-.224.5-.5.5z"/></g><g><path d="m20.5 8c-.206 0-.398-.128-.471-.333-1.205-3.39-4.431-5.667-8.029-5.667s-6.824 2.277-8.029 5.667c-.092.26-.379.396-.638.304-.261-.092-.396-.378-.304-.638 1.346-3.788 4.951-6.333 8.971-6.333s7.625 2.545 8.971 6.333c.093.26-.043.546-.304.639-.055.019-.111.028-.167.028z"/></g></svg>