<svg height="512pt" viewBox="0 -8 512 512" width="512pt" xmlns="http://www.w3.org/2000/svg"><path d="m181.988281 442.253906h-157.855469c-5.035156 0-9.132812-4.097656-9.132812-9.132812v-408.988282c0-5.035156 4.097656-9.132812 9.132812-9.132812h408.988282c5.035156 0 9.132812 4.097656 9.132812 9.132812v265.09375c0 4.140626 3.355469 7.5 7.5 7.5 4.140625 0 7.5-3.359374 7.5-7.5v-265.09375c0-13.308593-10.824218-24.132812-24.132812-24.132812h-408.988282c-13.308593 0-24.132812 10.824219-24.132812 24.132812v408.988282c0 13.308594 10.824219 24.132812 24.132812 24.132812h157.855469c4.144531 0 7.5-3.359375 7.5-7.5 0-4.144531-3.355469-7.5-7.5-7.5zm0 0"/><path d="m431.929688 310.878906c-5.050782 0-10.035157.46875-14.925782 1.390625v-61.765625c0-.011718 0-.023437 0-.035156v-202.722656c0-4.140625-3.355468-7.5-7.5-7.5h-361.753906c-4.144531 0-7.5 3.359375-7.5 7.5v316.90625c0 4.140625 3.355469 7.5 7.5 7.5h127.964844c-.804688 4.667968-1.222656 9.46875-1.222656 14.363281 0 46.597656 37.90625 84.507813 84.503906 84.507813h55.097656l22.425781 22.425781c1.796875 1.796875 4.183594 2.785156 6.726563 2.785156 2.539062 0 4.925781-.988281 6.722656-2.785156l22.425781-22.425781h59.535157c44.148437 0 80.070312-35.917969 80.070312-80.070313s-35.921875-80.074219-80.070312-80.074219zm-29.925782-25.261718c-13.5625-25-40.050781-42.011719-70.433594-42.011719-10.191406 0-20.015624 1.9375-29.085937 5.488281l37.195313-41.628906c3.363281-3.765625 7.996093-5.839844 13.046874-5.839844 4.984376 0 9.5625 2.019531 12.914063 5.691406l36.363281 45.820313zm0-230.371094v173.757812l-24.761718-31.199218c-.089844-.113282-.183594-.226563-.28125-.335938-6.15625-6.894531-14.992188-10.84375-24.234376-10.84375-9.242187 0-18.074218 3.953125-24.230468 10.84375l-47.136719 52.753906-89.070313-99.691406c-6.160156-6.890625-14.992187-10.84375-24.234374-10.84375-9.242188 0-18.074219 3.953125-24.230469 10.84375l-88.574219 99.128906v-194.414062zm-346.753906 301.90625v-84.976563l99.757812-111.648437c3.363282-3.765625 7.996094-5.839844 13.046876-5.839844 5.050781 0 9.683593 2.074219 13.046874 5.839844l94.582032 105.855468c-9.910156 9.648438-17.375 21.878907-21.242188 35.75-34.300781 1.828126-63.234375 24.207032-74.6875 55.019532zm287.996094 121.808594-20.738282-20.738282h-.003906l-19.96875-19.96875h18.492188c4.140625 0 7.5-3.359375 7.5-7.5v-62.253906h29.4375v62.253906c0 4.140625 3.355468 7.5 7.5 7.5h18.488281zm88.683594-22.933594h-44.535157l16.539063-16.539063c2.730468-2.730469 3.539062-6.796875 2.0625-10.363281-1.476563-3.566406-4.925782-5.871094-8.785156-5.871094h-24.246094v-60.242187c0-5.242188-4.265625-9.507813-9.507813-9.507813h-40.421875c-5.242187 0-9.507812 4.265625-9.507812 9.507813v60.242187h-24.246094c-3.859375 0-7.308594 2.304688-8.785156 5.867188-1.476563 3.566406-.667969 7.632812 2.0625 10.367187l16.539062 16.539063h-40.097656c-38.328125 0-69.507812-31.183594-69.507812-69.507813 0-6.742187.964843-13.265625 2.765624-19.433593.0625-.195313.125-.390626.175782-.59375 8.617187-28.59375 35.199218-49.480469 66.566406-49.480469.191406 0 .382812.007812.574219.015625.222656.007812.445312.011718.667969.019531 3.648437.058594 6.796874-2.480469 7.5-6.046875 5.992187-30.359375 32.835937-52.394531 63.828124-52.394531 35.851563 0 65.019532 29.132812 65.074219 64.96875-.003906.109375-.007812.21875-.007812.328125 0 2.507812 1.253906 4.847656 3.335937 6.238281 2.085938 1.390625 4.726563 1.648437 7.039063.6875 1.417969-.585937 2.847656-1.121094 4.289062-1.605469.359375-.085937.707031-.203125 1.042969-.339844 6.3125-1.996093 12.875-3.003906 19.585938-3.003906 35.878906 0 65.070312 29.191406 65.070312 65.070313 0 35.886719-29.191406 65.078125-65.070312 65.078125zm0 0"/></svg>