<?xml version="1.0" standalone="no"?>
<!DOCTYPE svg PUBLIC "-//W3C//DTD SVG 20010904//EN"
 "http://www.w3.org/TR/2001/REC-SVG-20010904/DTD/svg10.dtd">
<svg version="1.0" xmlns="http://www.w3.org/2000/svg"
 width="21.000000pt" height="14.000000pt" viewBox="0 0 21.000000 14.000000"
 preserveAspectRatio="xMidYMid meet">

<g transform="translate(0.000000,14.000000) scale(0.100000,-0.100000)"
fill="#000000" stroke="none">
<path d="M4 126 c-10 -26 4 -46 31 -46 23 0 26 4 23 28 -3 31 -44 45 -54 18z
m46 -16 c0 -13 -7 -20 -20 -20 -13 0 -20 7 -20 20 0 13 7 20 20 20 13 0 20 -7
20 -20z"/>
<path d="M80 131 c0 -4 11 -6 25 -3 14 2 25 6 25 8 0 2 -11 4 -25 4 -14 0 -25
-4 -25 -9z"/>
<path d="M157 134 c-4 -4 -7 -18 -7 -31 0 -21 4 -24 28 -21 21 2 27 8 27 28 0
18 -6 26 -20 28 -12 2 -24 0 -28 -4z m43 -24 c0 -13 -7 -20 -20 -20 -13 0 -20
7 -20 20 0 13 7 20 20 20 13 0 20 -7 20 -20z"/>
<path d="M130 107 c0 -9 -11 -17 -27 -20 l-28 -4 28 -2 c26 -1 48 22 33 36 -3
4 -6 -1 -6 -10z"/>
<path d="M4 45 c-10 -25 4 -47 28 -43 17 2 24 11 26 31 3 23 0 27 -23 27 -14
0 -28 -7 -31 -15z m46 -15 c0 -13 -7 -20 -20 -20 -13 0 -20 7 -20 20 0 13 7
20 20 20 13 0 20 -7 20 -20z"/>
<path d="M107 53 c12 -2 24 -11 26 -19 3 -9 4 -8 3 3 -1 12 -10 18 -26 19 -21
1 -21 0 -3 -3z"/>
<path d="M152 33 c2 -22 8 -28 28 -28 20 0 25 5 25 25 0 20 -6 26 -28 28 -26
3 -28 1 -25 -25z m48 -3 c0 -13 -7 -20 -20 -20 -13 0 -20 7 -20 20 0 13 7 20
20 20 13 0 20 -7 20 -20z"/>
<path d="M80 9 c0 -5 11 -9 25 -9 14 0 25 2 25 4 0 2 -11 6 -25 8 -14 3 -25 1
-25 -3z"/>
</g>
</svg>
