<?xml version="1.0" standalone="no"?>
<!DOCTYPE svg PUBLIC "-//W3C//DTD SVG 20010904//EN"
 "http://www.w3.org/TR/2001/REC-SVG-20010904/DTD/svg10.dtd">
<svg version="1.0" xmlns="http://www.w3.org/2000/svg"
 width="22.000000pt" height="22.000000pt" viewBox="0 0 22.000000 22.000000"
 preserveAspectRatio="xMidYMid meet">

<g transform="translate(0.000000,22.000000) scale(0.100000,-0.100000)"
fill="#000000" stroke="none">
<path d="M195 210 c-3 -5 -2 -10 4 -10 5 0 13 5 16 10 3 6 2 10 -4 10 -5 0
-13 -4 -16 -10z"/>
<path d="M133 177 c-41 -20 -43 -23 -43 -64 l0 -43 -35 17 c-19 9 -35 21 -35
25 0 5 -5 6 -11 2 -7 -4 35 -30 96 -61 59 -29 110 -52 112 -49 3 2 -5 7 -17
11 -15 5 -19 12 -14 23 3 10 8 28 10 42 4 24 4 24 -5 -2 -15 -44 -20 -49 -42
-38 -16 9 -18 17 -13 50 4 25 2 45 -5 54 -10 12 -8 17 8 25 31 17 40 13 50
-21 5 -20 9 -25 10 -13 0 11 -5 30 -12 41 l-12 22 -42 -21z m-5 -73 c-5 -42
-28 -43 -28 -1 0 18 3 37 7 41 12 12 25 -11 21 -40z"/>
<path d="M50 135 c-14 -8 -20 -14 -14 -15 5 0 19 7 30 15 24 18 16 19 -16 0z"/>
</g>
</svg>
