<?xml version="1.0" standalone="no"?>
<!DOCTYPE svg PUBLIC "-//W3C//DTD SVG 20010904//EN"
 "http://www.w3.org/TR/2001/REC-SVG-20010904/DTD/svg10.dtd">
<svg version="1.0" xmlns="http://www.w3.org/2000/svg"
 width="15.000000pt" height="21.000000pt" viewBox="0 0 15.000000 21.000000"
 preserveAspectRatio="xMidYMid meet">

<g transform="translate(0.000000,21.000000) scale(0.100000,-0.100000)"
fill="#000000" stroke="none">
<path d="M105 163 c-16 -21 -30 -40 -32 -42 -2 -2 -14 2 -28 9 -14 7 -27 11
-29 9 -2 -2 -6 -33 -10 -67 -8 -72 -12 -71 82 -30 l47 21 -27 20 -27 20 31 44
c17 23 29 45 26 48 -3 3 -18 -11 -33 -32z m-31 -76 l28 -23 -41 -16 -41 -16 0
39 c0 45 12 49 54 16z"/>
</g>
</svg>
