<?xml version="1.0" standalone="no"?>
<!DOCTYPE svg PUBLIC "-//W3C//DTD SVG 20010904//EN"
 "http://www.w3.org/TR/2001/REC-SVG-20010904/DTD/svg10.dtd">
<svg version="1.0" xmlns="http://www.w3.org/2000/svg"
 width="20.000000pt" height="22.000000pt" viewBox="0 0 20.000000 22.000000"
 preserveAspectRatio="xMidYMid meet">

<g transform="translate(0.000000,22.000000) scale(0.100000,-0.100000)"
fill="#000000" stroke="none">
<path d="M75 190 c-10 -11 -13 -20 -7 -20 6 0 13 6 15 13 3 6 6 0 6 -15 1 -25
-2 -27 -46 -31 -27 -2 -1 -3 57 -3 58 0 84 1 58 3 -44 4 -48 6 -48 30 0 21 2
24 15 13 8 -7 15 -9 15 -5 0 8 -31 34 -41 35 -3 0 -14 -9 -24 -20z"/>
<path d="M43 83 c42 -4 47 -7 47 -28 0 -19 -4 -23 -17 -18 -12 4 -11 0 4 -11
18 -13 27 -14 43 -6 11 6 20 16 20 22 0 7 -5 6 -15 -2 -13 -11 -15 -8 -15 13
0 24 4 26 48 30 26 2 0 3 -58 3 -58 0 -84 -1 -57 -3z"/>
</g>
</svg>
