<?xml version="1.0" encoding="utf-8"?>
<!-- Generator: Adobe Illustrator 16.0.0, SVG Export Plug-In . SVG Version: 6.00 Build 0)  -->
<!DOCTYPE svg PUBLIC "-//W3C//DTD SVG 1.1//EN" "http://www.w3.org/Graphics/SVG/1.1/DTD/svg11.dtd">
<svg version="1.1" id="Layer_1" xmlns="http://www.w3.org/2000/svg" xmlns:xlink="http://www.w3.org/1999/xlink" x="0px" y="0px"
	 width="97.475px" height="97.475px" viewBox="0 0 97.475 97.475" enable-background="new 0 0 97.475 97.475" xml:space="preserve">
<path fill-rule="evenodd" clip-rule="evenodd" fill="#FFFFFF" d="M51.256,8.456h-5.035c-2.803,0-5.524,1.096-7.513,3.047
	c-1.784,1.744-2.839,4.06-3.046,6.494l-0.039,0.769c-0.04,2.563-2.111,4.592-4.667,4.592c-0.567-0.041-1.179-0.166-1.706-0.403
	l-0.57-0.287c-4.992-2.806-11.486-1.094-14.412,3.896l-2.641,4.265c-2.799,4.75-1.42,10.723,3.088,13.807l0.647,0.403
	c1.545,0.897,2.439,2.396,2.439,4.021c0,1.498-0.773,2.878-1.991,3.735l-0.448,0.285c-4.667,2.632-6.534,8.485-4.178,13.354
	l0.363,0.65l2.558,4.384c1.38,2.397,3.656,4.181,6.375,4.957c2.434,0.651,4.992,0.484,7.308-0.531l0.729-0.365
	c1.222-0.688,2.439-0.854,3.656-0.53c1.177,0.285,2.153,1.062,2.759,2.117c0.366,0.522,0.532,1.095,0.61,1.704l0.041,0.61
	c0,5.56,4.75,10.231,10.637,10.231h5.035c5.524,0,10.15-4.188,10.599-9.589l0.041-0.688c0-1.342,0.484-2.516,1.339-3.371
	c0.894-0.848,2.07-1.339,3.288-1.293c0.566,0,1.177,0.12,1.787,0.405l0.527,0.245c4.667,2.633,10.797,1.293,13.925-3.133l0.409-0.61
	l2.676-4.377c1.464-2.442,1.828-5.282,1.099-7.961c-0.65-2.355-2.113-4.426-4.184-5.845l-0.649-0.404
	c-1.178-0.698-1.946-1.666-2.273-2.847c-0.324-1.134-0.162-2.396,0.445-3.41c0.364-0.611,0.813-1.095,1.38-1.46l1.014-0.65
	c4.227-2.797,5.809-8.324,3.616-12.996l-0.245-0.443c-0.041-0.119-0.121-0.247-0.16-0.365l-2.521-4.219
	c-2.76-4.71-8.727-6.543-13.719-4.227l-0.691,0.324c-1.18,0.691-2.437,0.858-3.614,0.57c-1.217-0.324-2.232-1.054-2.844-2.116
	c-0.324-0.522-0.527-1.095-0.567-1.655l-0.039-0.612c0.078-2.561-1.015-5.281-3.006-7.312C56.86,9.592,54.139,8.456,51.256,8.456
	 M46.221,14.34h5.035c1.257,0,2.436,0.492,3.327,1.382c0.856,0.895,1.34,2.068,1.3,3.291l0.08,1.016
	c0.167,1.585,0.65,2.964,1.383,4.178c1.419,2.356,3.735,4.101,6.455,4.79c2.761,0.697,5.642,0.285,8.082-1.134l0.403-0.198
	l0.449-0.166c1.99-0.65,4.347,0.166,5.44,2.068l2.395,4.06l0.04,0.127l0.285,0.524c0.976,2.03,0.162,4.551-1.907,5.766l-0.651,0.402
	c-1.378,0.937-2.478,2.07-3.246,3.372c-1.38,2.394-1.789,5.241-1.055,7.921c0.647,2.435,2.189,4.505,4.301,5.924l1.096,0.69
	c0.812,0.53,1.462,1.419,1.707,2.48c0.322,1.134,0.16,2.396-0.447,3.41l-2.641,4.298l-0.282,0.452
	c-1.22,1.706-3.616,2.316-5.605,1.459l-1.297-0.649c-1.424-0.651-2.803-0.937-4.222-0.977c-2.927,0-5.647,1.097-7.637,3.047
	c-2.029,1.95-3.125,4.63-3.125,7.39v0.444c-0.202,2.236-2.231,4.061-4.627,4.061h-5.035c-2.395,0-4.385-1.784-4.627-4.061
	l-0.083-1.421c-0.163-1.585-0.65-2.917-1.38-4.137c-1.379-2.356-3.694-4.141-6.414-4.831c-2.721-0.737-5.642-0.325-8.08,1.055
	l-0.445,0.199c-0.852,0.412-1.991,0.492-3.045,0.167c-1.177-0.325-2.192-1.096-2.804-2.158l-2.556-4.338l-0.242-0.412
	c-0.937-2.03-0.167-4.543,1.946-5.717l0.612-0.412c2.961-2.031,4.706-5.233,4.706-8.644c0-3.497-1.784-6.7-4.706-8.65l-1.06-0.65
	c-1.863-1.301-2.473-3.896-1.256-5.965l2.636-4.227c1.301-2.228,4.144-3.004,6.375-1.744l0.774,0.404
	c1.462,0.65,2.921,0.975,4.34,0.975c5.647,0,10.234-4.218,10.683-9.618l0.04-1.221c0.079-0.935,0.567-1.951,1.341-2.681
	C43.827,14.832,45.004,14.34,46.221,14.34 M48.739,35.783c-7.47,0-13.521,5.964-13.521,13.275c0,7.304,6.051,13.273,13.521,13.273
	c7.51,0,13.56-5.97,13.56-13.273C62.298,41.747,56.249,35.783,48.739,35.783 M48.739,41.667c4.18,0,7.549,3.292,7.549,7.392
	c0,4.099-3.369,7.391-7.549,7.391c-4.139,0-7.51-3.292-7.51-7.391C41.229,44.959,44.6,41.667,48.739,41.667"/>
<g>
</g>
<g>
</g>
<g>
</g>
<g>
</g>
<g>
</g>
<g>
</g>
</svg>
