<?xml version="1.0" standalone="no"?>
<!DOCTYPE svg PUBLIC "-//W3C//DTD SVG 20010904//EN"
 "http://www.w3.org/TR/2001/REC-SVG-20010904/DTD/svg10.dtd">
<svg version="1.0" xmlns="http://www.w3.org/2000/svg"
 width="19.000000pt" height="14.000000pt" viewBox="0 0 19.000000 14.000000"
 preserveAspectRatio="xMidYMid meet">

<g transform="translate(0.000000,14.000000) scale(0.100000,-0.100000)"
fill="#000000" stroke="none">
<path d="M12 128 c-16 -16 -16 -100 0 -116 17 -17 103 -15 118 3 7 8 23 15 36
15 21 0 24 5 24 40 0 35 -3 40 -24 40 -13 0 -29 7 -36 15 -15 18 -101 20 -118
3z m106 -10 c16 -16 16 -80 0 -96 -16 -16 -80 -16 -96 0 -16 16 -16 80 0 96
16 16 80 16 96 0z m62 -48 c0 -32 -26 -43 -36 -15 -9 21 3 45 21 45 10 0 15
-10 15 -30z"/>
</g>
</svg>
